<?xml version="1.0" encoding="UTF-8" standalone="no"?>
<svg
   xmlns:dc="http://purl.org/dc/elements/1.1/"
   xmlns:cc="http://creativecommons.org/ns#"
   xmlns:rdf="http://www.w3.org/1999/02/22-rdf-syntax-ns#"
   xmlns:svg="http://www.w3.org/2000/svg"
   xmlns="http://www.w3.org/2000/svg"
   xmlns:sodipodi="http://sodipodi.sourceforge.net/DTD/sodipodi-0.dtd"
   xmlns:inkscape="http://www.inkscape.org/namespaces/inkscape"
   width="313.42746mm"
   height="187.15303mm"
   viewBox="0 0 313.42746 187.15303"
   version="1.1"
   id="svg1684"
   inkscape:version="1.0.1 (0767f8302a, 2020-10-17)"
   sodipodi:docname="rHHI.svg">
  <defs
     id="defs1678">
    <clipPath
       id="p.2">
      <path
         id="path214"
         d="M 279.92676,0 H 711.646 V 1024 H 279.92676 Z"
         inkscape:connector-curvature="0"
         style="clip-rule:evenodd" />
    </clipPath>
    <clipPath
       id="p.4">
      <path
         id="path234"
         d="M 279.92676,0 H 711.646 V 1024 H 279.92676 Z"
         inkscape:connector-curvature="0"
         style="clip-rule:evenodd" />
    </clipPath>
    <clipPath
       id="clipPath1593">
      <path
         id="path1591"
         d="M 279.92676,0 H 711.646 V 1024 H 279.92676 Z"
         inkscape:connector-curvature="0"
         style="clip-rule:evenodd" />
    </clipPath>
    <clipPath
       id="clipPath1597">
      <path
         id="path1595"
         d="M 279.92676,0 H 711.646 V 1024 H 279.92676 Z"
         inkscape:connector-curvature="0"
         style="clip-rule:evenodd" />
    </clipPath>
  </defs>
  <sodipodi:namedview
     id="base"
     pagecolor="#ffffff"
     bordercolor="#666666"
     borderopacity="1.0"
     inkscape:pageopacity="0.0"
     inkscape:pageshadow="2"
     inkscape:zoom="0.9899495"
     inkscape:cx="464.96623"
     inkscape:cy="531.07238"
     inkscape:document-units="mm"
     inkscape:current-layer="layer1"
     showgrid="false"
     fit-margin-top="0"
     fit-margin-left="0"
     fit-margin-right="0"
     fit-margin-bottom="0"
     inkscape:window-width="1920"
     inkscape:window-height="1025"
     inkscape:window-x="0"
     inkscape:window-y="27"
     inkscape:window-maximized="1"
     inkscape:snap-global="true"
     inkscape:snap-page="true"
     inkscape:document-rotation="0" />
  <metadata
     id="metadata1681">
    <rdf:RDF>
      <cc:Work
         rdf:about="">
        <dc:format>image/svg+xml</dc:format>
        <dc:type
           rdf:resource="http://purl.org/dc/dcmitype/StillImage" />
        <dc:title />
      </cc:Work>
    </rdf:RDF>
  </metadata>
  <g
     inkscape:label="Layer 1"
     inkscape:groupmode="layer"
     id="layer1"
     transform="translate(544.32831,160.27579)">
    <g
       id="g937"
       transform="translate(-11.260214)">
      <path
         style="fill:none;stroke:#000000;stroke-width:1.165;stroke-linecap:butt;stroke-linejoin:miter;stroke-miterlimit:4;stroke-dasharray:none;stroke-opacity:1"
         d="m -387.60508,-7.1431342 h 17.51164"
         id="path928" />
      <path
         style="fill:none;stroke:#000000;stroke-width:1.165;stroke-linecap:butt;stroke-linejoin:miter;stroke-miterlimit:4;stroke-dasharray:none;stroke-opacity:1"
         d="m -387.60508,-2.9098006 h 17.51164"
         id="path930" />
      <path
         style="fill:none;stroke:#000000;stroke-width:1.165;stroke-linecap:butt;stroke-linejoin:miter;stroke-miterlimit:4;stroke-dasharray:none;stroke-opacity:1"
         d="m -387.60508,1.3235328 h 17.51164"
         id="path932" />
    </g>
    <path
       d="m -418.40516,-106.74736 h 13.51983 v 29.891233 h -13.51983 z"
       id="path232"
       inkscape:connector-curvature="0"
       style="fill:#000000;fill-opacity:0;fill-rule:evenodd;stroke-width:0.26458332" />
    <g
       transform="matrix(0.25324794,0,0,0.25324794,-546.93424,-137.19368)"
       id="g1310"
       style="stroke-width:1.04475999">
      <g
         id="g219"
         transform="matrix(0.12365837,0,0,0.11526509,524.63249,76.342385)"
         style="stroke-width:1.04475999">
        <clipPath
           id="clipPath1611">
          <path
             id="path1609"
             d="M 279.92676,0 H 711.646 V 1024 H 279.92676 Z"
             inkscape:connector-curvature="0"
             style="clip-rule:evenodd" />
        </clipPath>
        <path
           style="fill:#000000;stroke:#ffffff;stroke-width:8.23429585;stroke-miterlimit:4;stroke-dasharray:none"
           d="m -729.87063,15.201574 c -13.91922,-4.413682 -24.244,-14.1776388 -29.84979,-28.228472 -1.7278,-4.330611 -1.84697,-19.657624 -2.3317,-299.816792 l -0.51087,-295.25288 h -8.17309 -8.17311 l -0.51079,109.31508 -0.51079,109.31508 -2.34298,4.38799 c -3.6126,6.766 -9.02222,12.13048 -15.37166,15.24336 -7.53334,3.69332 -19.50335,3.97489 -26.72657,0.62871 -6.89774,-3.19541 -12.81822,-8.89618 -16.0285,-15.43359 l -2.87178,-5.84811 v -127.70453 -127.70453 l 2.36157,-8.58965 c 9.82363,-35.73095 38.24787,-62.62703 73.96273,-69.98621 6.85774,-1.41306 19.92717,-1.62259 101.20977,-1.62259 60.71527,0 95.45377,0.37526 99.39716,1.07372 38.55608,6.82912 68.64579,35.87874 77.72494,75.03818 1.7902,7.72155 1.89493,15.03091 1.89493,132.3019 0,141.20266 0.69734,130.01587 -8.74935,140.35212 -6.75758,7.39385 -13.2949,10.26767 -23.43222,10.30079 -13.1998,0.0431 -23.86251,-6.74135 -29.50498,-18.77348 l -2.67651,-5.70736 -0.27361,-108.58988 -0.27353,-108.58986 -8.41035,0.29642 -8.41035,0.29644 -0.51079,296.27451 -0.51087,296.274505 -3.19335,6.6406456 c -5.9204,12.3115022 -14.56577,19.8077474 -27.30797,23.6780274 -20.56974,6.247867 -42.71109,-3.707625 -52.03804,-23.3982772 l -3.27808,-6.9203958 -0.26689,-174.444375 -0.26697,-174.44439 h -9.18321 -9.18321 v 170.90942 c 0,184.3594103 0.22688,176.205739 -5.19808,186.8395697 -2.63369,5.1623927 -10.36869,13.5860215 -15.40959,16.7813653 -9.44694,5.988283 -25.10325,8.26836 -35.07152,5.107539 z m 53.46318,-761.753504 c -36.88115,-6.22369 -63.16871,-36.70262 -63.16871,-73.24051 0,-12.62562 2.21319,-22.16825 7.87973,-33.97511 3.98413,-8.30163 5.96355,-10.98586 13.96129,-18.93273 14.91821,-14.82344 28.41652,-20.77347 49.1943,-21.68475 14.49333,-0.63568 24.57828,1.40207 36.78281,7.43243 28.03071,13.85025 44.96751,46.01033 40.32595,76.57204 -3.35136,22.06666 -15.72519,41.33075 -34.09634,53.08267 -14.35299,9.18147 -34.69285,13.47738 -50.87903,10.74596 z"
           id="path915"
           inkscape:connector-curvature="0" />
        <path
           inkscape:connector-curvature="0"
           id="path921"
           d="m -550.74639,596.64657 c -16.7727,-5.3185 -29.2141,-17.0841 -35.9691,-34.0154 -2.082,-5.2184 -2.2256,-23.6875 -2.8097,-361.2802 l -0.6156,-355.78067 h -9.8486 -9.8486 l -0.6155,131.725024 -0.6155,131.725016 -2.8233,5.28754 c -4.3532,8.15306 -10.8718,14.61727 -18.5229,18.36831 -9.0777,4.45046 -23.5016,4.78975 -32.2056,0.75759 -8.3118,-3.85048 -15.446,-10.71992 -19.3144,-18.59753 l -3.4605,-7.04698 V -46.095102 -199.97947 l 2.8457,-10.35056 c 11.8375,-43.05592 46.0888,-75.46578 89.1253,-84.33361 8.2636,-1.70275 24.0123,-1.95523 121.9581,-1.95523 73.1621,0 115.0221,0.45219 119.7739,1.29384 46.4602,8.22911 82.7184,43.23399 93.6588,90.42125 2.1572,9.3045 2.2834,18.1123 2.2834,159.424218 0,170.149652 0.8403,156.669542 -10.543,169.124752 -8.1429,8.90961 -16.0204,12.37258 -28.2359,12.41249 -15.9058,0.0519 -28.7544,-8.12335 -35.5536,-22.62211 l -3.2252,-6.87738 -0.3297,-130.851156 -0.3296,-130.851134 -10.1345,0.35719 -10.1345,0.35721 -0.6155,357.01174 -0.6156,357.01173 -3.848,8.002 c -7.1341,14.8354 -17.5518,23.8684 -32.9062,28.5321 -24.7866,7.5287 -51.467,-4.4677 -62.706,-28.195 l -3.9501,-8.3391 -0.3216,-210.20603 -0.3217,-210.20606 h -11.0658 -11.0658 v 205.94641 c 0,222.15368 0.2734,212.32848 -6.2637,225.14228 -3.1736,6.2207 -12.4943,16.3712 -18.5686,20.2216 -11.3836,7.2159 -30.2495,9.9634 -42.2613,6.1546 z m 64.4233,-917.91544 c -44.4419,-7.49956 -76.1185,-44.22677 -76.1185,-88.25504 0,-15.2139 2.6669,-26.71286 9.4951,-40.94016 4.8009,-10.00349 7.1861,-13.23796 16.8234,-22.81398 17.9765,-17.86224 34.242,-25.03206 59.2793,-26.13021 17.4645,-0.766 29.6169,1.68957 44.3234,8.95617 33.7771,16.68958 54.186,55.44258 48.5929,92.26953 -4.0384,26.59039 -18.9489,49.80368 -41.0862,63.96478 -17.2954,11.0637 -41.805,16.24028 -61.3094,12.94891 z"
           style="fill:#000000;stroke:#ffffff;stroke-width:9.92235279;stroke-miterlimit:4;stroke-dasharray:none" />
        <path
           inkscape:connector-curvature="0"
           id="path923"
           d="m -48.359186,316.20709 c -16.7727,-5.3185 -29.2141,-17.0841 -35.9691,-34.0154 -2.082,-5.2184 -2.2256,-23.6875 -2.8097,-361.280196 l -0.6156,-355.780684 h -9.8486 -9.848604 l -0.6155,131.72503 -0.6155,131.72502 -2.8233,5.28754 c -4.3532,8.15306 -10.8718,14.61727 -18.5229,18.36831 -9.0777,4.45046 -23.5016,4.78975 -32.2056,0.75759 -8.3118,-3.85048 -15.446,-10.71992 -19.3144,-18.59753 l -3.4605,-7.04698 v -153.88438 -153.88437 l 2.8457,-10.35056 c 11.8375,-43.05591 46.0888,-75.46577 89.125304,-84.3336 8.2636,-1.70275 24.0123,-1.95523 121.958098,-1.95523 73.162098,0 115.022098,0.45219 119.773898,1.29384 46.4602,8.22911 82.7184,43.23399 93.6588,90.42124 2.1572,9.3045 2.2834,18.1123 2.2834,159.42422 0,170.14966 0.8403,156.66955 -10.543,169.12476 -8.1429,8.90961 -16.0204,12.37258 -28.2359,12.41249 -15.9058,0.0519 -28.7544,-8.12335 -35.5536,-22.62211 l -3.2252,-6.87738 -0.3297,-130.85116 -0.3296,-130.85114 -10.1345,0.35719 -10.1345,0.35721 -0.6155,357.011754 -0.6156,357.011726 -3.848,8.002 c -7.1341,14.8354 -17.5518,23.8684 -32.9062,28.5321 -24.786598,7.5287 -51.466998,-4.4677 -62.705998,-28.195 l -3.9501,-8.3391 -0.3216,-210.206026 -0.3217,-210.206064 H 29.800212 18.734414 V 64.688614 c 0,222.153676 0.2734,212.328476 -6.2637,225.142276 -3.1736002,6.2207 -12.49430016,16.3712 -18.5686002,20.2216 -11.3835998,7.2159 -30.2494998,9.9634 -42.2612998,6.1546 z m 64.4233,-917.91544 c -44.4419,-7.49956 -76.1185,-44.22677 -76.1185,-88.25504 0,-15.2139 2.6669,-26.71286 9.4951,-40.94016 4.8009,-10.00349 7.1861,-13.23796 16.8234,-22.81398 17.9765,-17.86224 34.24199984,-25.03206 59.2793,-26.13021 17.464498,-0.766 29.616898,1.68957 44.323398,8.95617 33.777098,16.68958 54.185998,55.44258 48.592898,92.26953 -4.0384,26.59039 -18.948898,49.80368 -41.086198,63.96478 -17.2954,11.0637 -41.805,16.24028 -61.309398,12.94891 z"
           style="fill:#000000;stroke:#ffffff;stroke-width:9.92235279;stroke-miterlimit:4;stroke-dasharray:none" />
        <path
           style="fill:#000000;stroke:#ffffff;stroke-width:7.33840084;stroke-miterlimit:4;stroke-dasharray:none"
           d="m -1592.3433,11.194606 c -12.4048,-3.9334714 -21.6062,-12.6351054 -26.6021,-25.157202 -1.5398,-3.859438 -1.646,-17.518866 -2.078,-267.196584 l -0.4553,-263.12924 h -7.2838 -7.2839 l -0.4552,97.42156 -0.4552,97.42154 -2.0881,3.91058 c -3.2195,6.02986 -8.0406,10.81068 -13.6992,13.58488 -6.7137,3.29149 -17.3814,3.54242 -23.8187,0.5603 -6.1473,-2.84775 -11.4236,-7.92826 -14.2846,-13.75441 l -2.5593,-5.21182 v -113.81023 -113.81022 l 2.1046,-7.65509 c 8.7548,-31.84341 34.0865,-55.81318 65.9155,-62.37168 6.1117,-1.25932 17.7591,-1.44605 90.1981,-1.44605 54.1095,0 85.0684,0.33443 88.5827,0.9569 34.3612,6.08611 61.1771,31.97511 69.2685,66.87399 1.5954,6.88144 1.6887,13.39554 1.6887,117.90739 0,125.83975 0.6215,115.87009 -7.7974,125.08175 -6.0223,6.58939 -11.8484,9.15055 -20.8828,9.18006 -11.7636,0.0384 -21.2662,-6.00789 -26.2948,-16.73092 l -2.3853,-5.08639 -0.2438,-96.77525 -0.2438,-96.77524 -7.4953,0.26417 -7.4953,0.26418 -0.4552,264.03972 -0.4553,264.039695 -2.8459,5.918142 c -5.2763,10.97200464 -12.981,17.6526546 -24.3369,21.101847 -18.3317,5.568096 -38.0641,-3.3042344 -46.3763,-20.852534 l -2.9214,-6.167455 -0.2378,-155.464735 -0.238,-155.46477 h -8.184 -8.1841 v 152.3144 c 0,164.301018 0.2022,157.034469 -4.6325,166.5113346 -2.3472,4.600721 -9.2406,12.107856 -13.733,14.955545 -8.4192,5.3367554 -22.372,7.3687584 -31.2558,4.5518364 z m 47.6464,-678.874376 c -32.8685,-5.54655 -56.2959,-32.70936 -56.2959,-65.27191 0,-11.25193 1.9724,-19.75637 7.0224,-30.27864 3.5506,-7.39841 5.3147,-9.79059 12.4423,-16.87284 13.2951,-13.21057 25.3248,-18.51323 43.8419,-19.32544 12.9165,-0.56652 21.9042,1.2496 32.7808,6.62385 24.981,12.34334 40.0751,41.00439 35.9385,68.24094 -2.9867,19.66579 -14.0143,36.83394 -30.3866,47.30725 -12.7914,8.18252 -30.9183,12.01103 -45.3434,9.57679 z"
           id="path917"
           inkscape:connector-curvature="0" />
        <path
           style="fill:#000000;stroke:#ffffff;stroke-width:9.92235279;stroke-miterlimit:4;stroke-dasharray:none"
           d="m -1204.6238,422.13076 c -16.7727,-5.3185 -29.2141,-17.0841 -35.9691,-34.0154 -2.082,-5.2184 -2.2256,-23.6875 -2.8097,-361.280198 l -0.6156,-355.780682 h -9.8486 -9.8486 l -0.6155,131.72503 -0.6155,131.725022 -2.8233,5.28754 c -4.3532,8.15306 -10.8718,14.61727 -18.5229,18.36831 -9.0777,4.45046 -23.5016,4.78975 -32.2056,0.75759 -8.3118,-3.85048 -15.446,-10.71992 -19.3144,-18.59753 l -3.4605,-7.04698 V -220.61092 -374.49529 l 2.8457,-10.35056 c 11.8375,-43.05591 46.0888,-75.46577 89.1253,-84.3336 8.2636,-1.70275 24.0123,-1.95523 121.9581,-1.95523 73.1621,0 115.0221,0.45219 119.7739,1.29384 46.46021,8.22911 82.71841,43.23399 93.65881,90.42124 2.1572,9.3045 2.2834,18.1123 2.2834,159.42422 0,170.149662 0.8403,156.669552 -10.543,169.124762 -8.1429,8.90961 -16.0204,12.37258 -28.2359,12.41249 -15.9058,0.0519 -28.7544,-8.12335 -35.5536,-22.62211 l -3.2252,-6.87738 -0.3297,-130.851162 -0.3296,-130.85114 -10.1345,0.35719 -10.13451,0.35721 -0.6155,357.011752 -0.6156,357.011728 -3.848,8.002 c -7.1341,14.8354 -17.5518,23.8684 -32.9062,28.5321 -24.7866,7.5287 -51.467,-4.4677 -62.706,-28.195 l -3.9501,-8.3391 -0.3216,-210.20603 -0.3217,-210.206058 h -11.0658 -11.0658 V 170.61228 c 0,222.15368 0.2734,212.32848 -6.2637,225.14228 -3.1736,6.2207 -12.4943,16.3712 -18.5686,20.2216 -11.3836,7.2159 -30.2495,9.9634 -42.2613,6.1546 z m 64.4233,-917.91544 c -44.4419,-7.49956 -76.1185,-44.22677 -76.1185,-88.25504 0,-15.2139 2.6669,-26.71286 9.4951,-40.94016 4.8009,-10.00349 7.1861,-13.23796 16.8234,-22.81398 17.9765,-17.86224 34.242,-25.03206 59.2793,-26.13021 17.4645,-0.766 29.6169,1.68957 44.3234,8.95617 33.7771,16.68958 54.186,55.44258 48.5929,92.26953 -4.0384,26.59039 -18.9489,49.80368 -41.0862,63.96478 -17.2954,11.0637 -41.805,16.24028 -61.3094,12.94891 z"
           id="path919"
           inkscape:connector-curvature="0" />
        <path
           style="fill:#000000;stroke:#ffffff;stroke-width:10.55046749;stroke-miterlimit:4;stroke-dasharray:none"
           d="m -1835.7142,657.30375 c -17.8345,-5.65509 -31.0634,-18.16548 -38.246,-36.16859 -2.2138,-5.54874 -2.3665,-25.18698 -2.9876,-384.1503 l -0.6546,-378.30265 h -10.472 -10.4721 l -0.6544,140.0636141 -0.6545,140.0635959 -3.002,5.62226 c -4.6288,8.66917 -11.56,15.54259 -19.6955,19.53108 -9.6523,4.73219 -24.9893,5.09296 -34.2443,0.80555 -8.8379,-4.09423 -16.4238,-11.39853 -20.537,-19.77481 l -3.6796,-7.49308 V -26.125286 -189.751 l 3.0258,-11.00578 c 12.5869,-45.78148 49.0064,-80.24298 94.7672,-89.67217 8.7867,-1.81054 25.5324,-2.079 129.6784,-2.079 77.7935,0 122.3034,0.48082 127.356,1.37575 49.4013,8.75003 87.9547,45.97083 99.5877,96.14517 2.2937,9.8935 2.4279,19.25886 2.4279,169.516244 0,180.920636 0.8935,166.587196 -11.2104,179.830856 -8.6584,9.47362 -17.0345,13.1558 -30.0233,13.19824 -16.9127,0.0552 -30.5746,-8.63758 -37.8043,-24.05416 l -3.4293,-7.31274 -0.3506,-139.1344159 -0.3505,-139.1344141 -10.776,0.3798 -10.776,0.37983 -0.6545,379.61165 -0.6546,379.61163 -4.0916,8.50855 c -7.5857,15.77452 -18.6628,25.37934 -34.9892,30.33821 -26.3557,8.0053 -54.725,-4.75046 -66.6755,-29.97977 l -4.2002,-8.86699 -0.3419,-223.5127 -0.3421,-223.51272 h -11.7663 -11.7663 v 218.98342 c 0,236.21667 0.2907,225.76951 -6.6602,239.39446 -3.3745,6.61449 -13.2852,17.40754 -19.744,21.50169 -12.1042,7.67261 -32.1644,10.59401 -44.9366,6.54411 z m 68.5015,-976.02212 c -47.2552,-7.9743 -80.937,-47.02646 -80.937,-93.84185 0,-16.17698 2.8357,-28.40386 10.0961,-43.53179 5.1048,-10.63674 7.641,-14.07596 17.8884,-24.25817 19.1145,-18.99297 36.4096,-26.61666 63.0319,-27.78433 18.57,-0.81449 31.4917,1.79653 47.1292,9.52312 35.9153,17.74608 57.6161,58.95226 51.6689,98.11046 -4.294,28.27364 -20.1484,52.95641 -43.687,68.01395 -18.3903,11.76406 -44.4514,17.26834 -65.1905,13.76861 z"
           id="path925"
           inkscape:connector-curvature="0" />
        <path
           inkscape:connector-curvature="0"
           id="path913"
           d="m 259.60808,775.61419 c -17.83446,-5.6551 -31.06344,-18.16551 -38.24605,-36.16862 -2.2138,-5.54874 -2.36649,-25.18698 -2.98756,-384.1503 L 217.7199,-23.007381 h -10.47205 -10.47208 l -0.6544,140.063611 -0.6545,140.0636 -3.002,5.62226 c -4.6288,8.66917 -11.56,15.54259 -19.6955,19.53108 -9.6523,4.73219 -24.9893,5.09296 -34.2443,0.80555 -8.8379,-4.09423 -16.4238,-11.39853 -20.537,-19.77481 l -3.6796,-7.49308 V 92.185119 -71.440591 l 3.0258,-11.00578 c 12.5869,-45.781479 49.0064,-80.242979 94.76724,-89.672169 8.78671,-1.81054 25.53235,-2.079 129.67841,-2.079 77.79348,0 122.30334,0.48081 127.35594,1.37574 49.40127,8.75004 87.95472,45.97083 99.58768,96.145179 2.29376,9.8935 2.42795,19.25886 2.42795,169.51624 0,180.920641 0.89349,166.587201 -11.2104,179.830861 -8.65837,9.47362 -17.03454,13.1558 -30.02332,13.19824 -16.91269,0.0552 -30.57464,-8.63758 -37.80425,-24.05416 l -3.42936,-7.31274 -0.35058,-139.13442 -0.35046,-139.134411 -10.77604,0.3798 -10.77605,0.37983 -0.65446,379.611651 -0.65457,379.61163 -4.09159,8.50855 c -7.58571,15.77452 -18.66288,25.37934 -34.98926,30.33824 -26.35566,8.0053 -54.72501,-4.7505 -66.67548,-29.9798 L 355.16552,736.2159 354.82356,512.7032 354.4815,289.19048 H 342.7152 330.9489 V 508.1739 c 0,236.21667 0.29071,225.76951 -6.66021,239.39446 -3.3745,6.61449 -13.28522,17.40754 -19.74405,21.50169 -12.10421,7.67264 -32.16438,10.59404 -44.93656,6.54414 z m 68.50149,-976.02215 c -47.25521,-7.97431 -80.93703,-47.02646 -80.93703,-93.84185 0,-16.17698 2.83572,-28.40386 10.09617,-43.53179 5.10481,-10.63674 7.641,-14.07596 17.88837,-24.25817 19.11446,-18.99297 36.40962,-26.61666 63.03185,-27.78433 18.57006,-0.81449 31.49174,1.79653 47.12921,9.52312 35.91529,17.74608 57.61613,58.95226 51.66897,98.11046 -4.29404,28.27364 -20.14842,52.9564 -43.68708,68.01394 -18.39025,11.76407 -44.45138,17.26834 -65.19046,13.76862 z"
           style="fill:#000000;stroke:#ffffff;stroke-width:10.55046749;stroke-miterlimit:4;stroke-dasharray:none" />
      </g>
      <g
         id="g919"
         transform="translate(224.25386,-177.78685)"
         style="stroke-width:1.04475999">
        <g
           transform="matrix(0.15263441,0,0,0.14228055,588.98699,168.72035)"
           id="g955"
           style="stroke:#ffffff;stroke-width:8.03852463;stroke-miterlimit:4;stroke-dasharray:none">
          <clipPath
             id="clipPath949">
            <path
               style="clip-rule:evenodd"
               inkscape:connector-curvature="0"
               d="M 0,0 H 640 V 512 H 0 Z"
               id="path947" />
          </clipPath>
          <path
             sodipodi:nodetypes="csscsssssccccsssccccssccssscscsssssscssssssscscccccccccccccsccccccccccsscccc"
             inkscape:connector-curvature="0"
             id="path951"
             d="m 147.21141,526.35042 c -12.62757,-2.20015 -24.33534,-8.421 -33.95738,-18.04304 -7.52412,-7.52412 -12.05738,-14.7034 -15.863413,-25.12278 l -2.67921,-7.3346 v -148.5 c 0,-135.57502 0.14516,-149.02222 1.66779,-154.5 4.377673,-15.74898 10.895353,-27.33879 21.282623,-37.84501 6.88447,-6.96332 18.44576,-14.72415 26.32758,-17.67311 15.00312,-5.61339 11.95707,-5.39315 79.41516,-5.74196 l 62.69316,-0.32418 0.30684,-36.207868 0.30685,-36.20787 2.69461,-5.10744 c 3.99619,-7.57451 7.00962,-10.68544 14.004,-14.45709 5.7548,-3.103226 7.03869,-3.397971 14.80139,-3.397971 7.7627,0 9.04659,0.294745 14.80139,3.397971 6.99438,3.77165 10.00781,6.88258 14.004,14.45709 l 2.69461,5.10744 0.30685,36.20787 0.30684,36.207868 62.69316,0.32418 c 67.45809,0.34881 64.41204,0.12857 79.41516,5.74196 7.78071,2.91113 19.36842,10.65202 26.25625,17.53986 6.88784,6.88783 14.62873,18.47554 17.53986,26.25625 5.86062,15.66388 5.43414,3.67385 5.75238,161.72201 0.26073,129.48628 0.12139,145.84641 -1.30234,152.91106 -4.60713,22.8609 -19.76606,40.04476 -42.73553,48.44414 l -7.23263,2.6448 -169.5,0.14223 c -93.225,0.0782 -171.525,-0.21059 -174,-0.64181 z m 91.42885,-218.82033 c 9.02355,-4.22263 14.86119,-9.96464 19.33643,-19.01967 3.52914,-7.14073 3.73472,-8.08534 3.73472,-17.16042 0,-9.08927 -0.20173,-10.01191 -3.76588,-17.22348 -12.39413,-25.0778 -44.1359,-30.46316 -63.77833,-10.82073 -15.25992,15.25992 -15.85804,38.81421 -1.39413,54.90156 4.53042,5.03892 13.49872,10.44696 20.05608,12.09417 7.18295,1.80435 18.66821,0.57114 25.81111,-2.77143 z m 192,0 c 9.02355,-4.22263 14.86119,-9.96464 19.33643,-19.01967 3.52914,-7.14073 3.73472,-8.08534 3.73472,-17.16042 0,-9.08927 -0.20173,-10.01191 -3.76588,-17.22348 -12.39413,-25.0778 -44.1359,-30.46316 -63.77833,-10.82073 -15.25992,15.25992 -15.85804,38.81421 -1.39413,54.90156 4.53042,5.03892 13.49872,10.44696 20.05608,12.09417 7.18295,1.80435 18.66821,0.57114 25.81111,-2.77143 z M 22.649447,430.4124 c -4.76339,-1.14012 -13.34429,-6.16227 -16.07615,-9.40891 -1.35997,-1.61623 -3.68525,-5.23695 -5.16728,-8.04605 L -1.288593,407.85 v -72.5 -72.5 l 2.69461,-5.10744 c 3.99174,-7.56608 7.00501,-10.68088 14.004,-14.47585 l 6.30139,-3.41671 20.25,-0.33888 20.25,-0.33889 V 335.26112 431.35 l -18.25,-0.10236 c -10.0375,-0.0563 -19.62788,-0.43216 -21.31196,-0.83524 z M 574.21141,335.33618 v -96.16395 l 20.25,0.33889 20.25,0.33888 6.30139,3.41671 c 6.99899,3.79497 10.01226,6.90977 14.004,14.47585 l 2.69461,5.10744 v 72 72 l -2.59016,5.5 c -3.75151,7.96602 -7.17744,11.51377 -14.69518,15.21773 l -6.66185,3.28227 -19.7764,0.32506 -19.77641,0.32506 z"
             style="fill:#000000;stroke:#ffffff;stroke-width:8.03852463;stroke-miterlimit:4;stroke-dasharray:none" />
          <path
             transform="matrix(0.9957868,-0.09169869,0.07976218,0.99681392,0,0)"
             d="m 414.69869,451.26035 a 114.7568,22.055052 0 0 1 -63.26587,19.71025 114.7568,22.055052 0 0 1 -120.04017,-2.02243 114.7568,22.055052 0 0 1 -44.45724,-21.52516 l 113.00648,3.83734 z"
             sodipodi:end="3.3164717"
             sodipodi:start="0"
             sodipodi:ry="22.055052"
             sodipodi:rx="114.7568"
             sodipodi:cy="451.26035"
             sodipodi:cx="299.94189"
             sodipodi:type="arc"
             id="path953"
             style="opacity:1;vector-effect:none;fill:#ffffff;fill-opacity:1;stroke:#ffffff;stroke-width:8.03881264;stroke-linecap:round;stroke-linejoin:round;stroke-miterlimit:4;stroke-dasharray:none;stroke-dashoffset:0;stroke-opacity:1" />
        </g>
        <g
           transform="matrix(0.1705977,0,0,0.15902531,489.07413,202.61138)"
           id="g965"
           style="stroke:#ffffff;stroke-width:8.03852463;stroke-miterlimit:4;stroke-dasharray:none">
          <clipPath
             id="clipPath959">
            <path
               style="clip-rule:evenodd"
               inkscape:connector-curvature="0"
               d="M 0,0 H 640 V 512 H 0 Z"
               id="path957" />
          </clipPath>
          <path
             sodipodi:nodetypes="csscsssssccccsssccccssccssscscsssssscssssssscscccccccccccccsccccccccccsscccc"
             inkscape:connector-curvature="0"
             id="path961"
             d="m 147.21141,526.35042 c -12.62757,-2.20015 -24.33534,-8.421 -33.95738,-18.04304 -7.52412,-7.52412 -12.05738,-14.7034 -15.863413,-25.12278 l -2.67921,-7.3346 v -148.5 c 0,-135.57502 0.14516,-149.02222 1.66779,-154.5 4.377673,-15.74898 10.895353,-27.33879 21.282623,-37.84501 6.88447,-6.96332 18.44576,-14.72415 26.32758,-17.67311 15.00312,-5.61339 11.95707,-5.39315 79.41516,-5.74196 l 62.69316,-0.32418 0.30684,-36.207868 0.30685,-36.20787 2.69461,-5.10744 c 3.99619,-7.57451 7.00962,-10.68544 14.004,-14.45709 5.7548,-3.103226 7.03869,-3.397971 14.80139,-3.397971 7.7627,0 9.04659,0.294745 14.80139,3.397971 6.99438,3.77165 10.00781,6.88258 14.004,14.45709 l 2.69461,5.10744 0.30685,36.20787 0.30684,36.207868 62.69316,0.32418 c 67.45809,0.34881 64.41204,0.12857 79.41516,5.74196 7.78071,2.91113 19.36842,10.65202 26.25625,17.53986 6.88784,6.88783 14.62873,18.47554 17.53986,26.25625 5.86062,15.66388 5.43414,3.67385 5.75238,161.72201 0.26073,129.48628 0.12139,145.84641 -1.30234,152.91106 -4.60713,22.8609 -19.76606,40.04476 -42.73553,48.44414 l -7.23263,2.6448 -169.5,0.14223 c -93.225,0.0782 -171.525,-0.21059 -174,-0.64181 z m 91.42885,-218.82033 c 9.02355,-4.22263 14.86119,-9.96464 19.33643,-19.01967 3.52914,-7.14073 3.73472,-8.08534 3.73472,-17.16042 0,-9.08927 -0.20173,-10.01191 -3.76588,-17.22348 -12.39413,-25.0778 -44.1359,-30.46316 -63.77833,-10.82073 -15.25992,15.25992 -15.85804,38.81421 -1.39413,54.90156 4.53042,5.03892 13.49872,10.44696 20.05608,12.09417 7.18295,1.80435 18.66821,0.57114 25.81111,-2.77143 z m 192,0 c 9.02355,-4.22263 14.86119,-9.96464 19.33643,-19.01967 3.52914,-7.14073 3.73472,-8.08534 3.73472,-17.16042 0,-9.08927 -0.20173,-10.01191 -3.76588,-17.22348 -12.39413,-25.0778 -44.1359,-30.46316 -63.77833,-10.82073 -15.25992,15.25992 -15.85804,38.81421 -1.39413,54.90156 4.53042,5.03892 13.49872,10.44696 20.05608,12.09417 7.18295,1.80435 18.66821,0.57114 25.81111,-2.77143 z M 22.649447,430.4124 c -4.76339,-1.14012 -13.34429,-6.16227 -16.07615,-9.40891 -1.35997,-1.61623 -3.68525,-5.23695 -5.16728,-8.04605 L -1.288593,407.85 v -72.5 -72.5 l 2.69461,-5.10744 c 3.99174,-7.56608 7.00501,-10.68088 14.004,-14.47585 l 6.30139,-3.41671 20.25,-0.33888 20.25,-0.33889 V 335.26112 431.35 l -18.25,-0.10236 c -10.0375,-0.0563 -19.62788,-0.43216 -21.31196,-0.83524 z M 574.21141,335.33618 v -96.16395 l 20.25,0.33889 20.25,0.33888 6.30139,3.41671 c 6.99899,3.79497 10.01226,6.90977 14.004,14.47585 l 2.69461,5.10744 v 72 72 l -2.59016,5.5 c -3.75151,7.96602 -7.17744,11.51377 -14.69518,15.21773 l -6.66185,3.28227 -19.7764,0.32506 -19.77641,0.32506 z"
             style="fill:#000000;stroke:#ffffff;stroke-width:8.03852463;stroke-miterlimit:4;stroke-dasharray:none" />
          <path
             transform="matrix(0.9957868,-0.09169869,0.07976218,0.99681392,0,0)"
             d="m 414.69869,451.26035 a 114.7568,22.055052 0 0 1 -63.26587,19.71025 114.7568,22.055052 0 0 1 -120.04017,-2.02243 114.7568,22.055052 0 0 1 -44.45724,-21.52516 l 113.00648,3.83734 z"
             sodipodi:end="3.3164717"
             sodipodi:start="0"
             sodipodi:ry="22.055052"
             sodipodi:rx="114.7568"
             sodipodi:cy="451.26035"
             sodipodi:cx="299.94189"
             sodipodi:type="arc"
             id="path963"
             style="opacity:1;vector-effect:none;fill:#ffffff;fill-opacity:1;stroke:#ffffff;stroke-width:8.03881264;stroke-linecap:round;stroke-linejoin:round;stroke-miterlimit:4;stroke-dasharray:none;stroke-dashoffset:0;stroke-opacity:1" />
        </g>
        <g
           style="stroke:#ffffff;stroke-width:8.03852463;stroke-miterlimit:4;stroke-dasharray:none"
           id="g935"
           transform="matrix(0.19324707,0,0,0.18013827,651.82501,196.29625)">
          <clipPath
             id="clipPath929">
            <path
               id="path927"
               d="M 0,0 H 640 V 512 H 0 Z"
               inkscape:connector-curvature="0"
               style="clip-rule:evenodd" />
          </clipPath>
          <path
             style="fill:#000000;stroke:#ffffff;stroke-width:8.03852463;stroke-miterlimit:4;stroke-dasharray:none"
             d="m 147.21141,526.35042 c -12.62757,-2.20015 -24.33534,-8.421 -33.95738,-18.04304 -7.52412,-7.52412 -12.05738,-14.7034 -15.863413,-25.12278 l -2.67921,-7.3346 v -148.5 c 0,-135.57502 0.14516,-149.02222 1.66779,-154.5 4.377673,-15.74898 10.895353,-27.33879 21.282623,-37.84501 6.88447,-6.96332 18.44576,-14.72415 26.32758,-17.67311 15.00312,-5.61339 11.95707,-5.39315 79.41516,-5.74196 l 62.69316,-0.32418 0.30684,-36.207868 0.30685,-36.20787 2.69461,-5.10744 c 3.99619,-7.57451 7.00962,-10.68544 14.004,-14.45709 5.7548,-3.103226 7.03869,-3.397971 14.80139,-3.397971 7.7627,0 9.04659,0.294745 14.80139,3.397971 6.99438,3.77165 10.00781,6.88258 14.004,14.45709 l 2.69461,5.10744 0.30685,36.20787 0.30684,36.207868 62.69316,0.32418 c 67.45809,0.34881 64.41204,0.12857 79.41516,5.74196 7.78071,2.91113 19.36842,10.65202 26.25625,17.53986 6.88784,6.88783 14.62873,18.47554 17.53986,26.25625 5.86062,15.66388 5.43414,3.67385 5.75238,161.72201 0.26073,129.48628 0.12139,145.84641 -1.30234,152.91106 -4.60713,22.8609 -19.76606,40.04476 -42.73553,48.44414 l -7.23263,2.6448 -169.5,0.14223 c -93.225,0.0782 -171.525,-0.21059 -174,-0.64181 z m 91.42885,-218.82033 c 9.02355,-4.22263 14.86119,-9.96464 19.33643,-19.01967 3.52914,-7.14073 3.73472,-8.08534 3.73472,-17.16042 0,-9.08927 -0.20173,-10.01191 -3.76588,-17.22348 -12.39413,-25.0778 -44.1359,-30.46316 -63.77833,-10.82073 -15.25992,15.25992 -15.85804,38.81421 -1.39413,54.90156 4.53042,5.03892 13.49872,10.44696 20.05608,12.09417 7.18295,1.80435 18.66821,0.57114 25.81111,-2.77143 z m 192,0 c 9.02355,-4.22263 14.86119,-9.96464 19.33643,-19.01967 3.52914,-7.14073 3.73472,-8.08534 3.73472,-17.16042 0,-9.08927 -0.20173,-10.01191 -3.76588,-17.22348 -12.39413,-25.0778 -44.1359,-30.46316 -63.77833,-10.82073 -15.25992,15.25992 -15.85804,38.81421 -1.39413,54.90156 4.53042,5.03892 13.49872,10.44696 20.05608,12.09417 7.18295,1.80435 18.66821,0.57114 25.81111,-2.77143 z M 22.649447,430.4124 c -4.76339,-1.14012 -13.34429,-6.16227 -16.07615,-9.40891 -1.35997,-1.61623 -3.68525,-5.23695 -5.16728,-8.04605 L -1.288593,407.85 v -72.5 -72.5 l 2.69461,-5.10744 c 3.99174,-7.56608 7.00501,-10.68088 14.004,-14.47585 l 6.30139,-3.41671 20.25,-0.33888 20.25,-0.33889 V 335.26112 431.35 l -18.25,-0.10236 c -10.0375,-0.0563 -19.62788,-0.43216 -21.31196,-0.83524 z M 574.21141,335.33618 v -96.16395 l 20.25,0.33889 20.25,0.33888 6.30139,3.41671 c 6.99899,3.79497 10.01226,6.90977 14.004,14.47585 l 2.69461,5.10744 v 72 72 l -2.59016,5.5 c -3.75151,7.96602 -7.17744,11.51377 -14.69518,15.21773 l -6.66185,3.28227 -19.7764,0.32506 -19.77641,0.32506 z"
             id="path931"
             inkscape:connector-curvature="0"
             sodipodi:nodetypes="csscsssssccccsssccccssccssscscsssssscssssssscscccccccccccccsccccccccccsscccc" />
          <path
             style="opacity:1;vector-effect:none;fill:#ffffff;fill-opacity:1;stroke:#ffffff;stroke-width:8.03881264;stroke-linecap:round;stroke-linejoin:round;stroke-miterlimit:4;stroke-dasharray:none;stroke-dashoffset:0;stroke-opacity:1"
             id="path933"
             sodipodi:type="arc"
             sodipodi:cx="299.94189"
             sodipodi:cy="451.26035"
             sodipodi:rx="114.7568"
             sodipodi:ry="22.055052"
             sodipodi:start="0"
             sodipodi:end="3.3164717"
             d="m 414.69869,451.26035 a 114.7568,22.055052 0 0 1 -63.26587,19.71025 114.7568,22.055052 0 0 1 -120.04017,-2.02243 114.7568,22.055052 0 0 1 -44.45724,-21.52516 l 113.00648,3.83734 z"
             transform="matrix(0.9957868,-0.09169869,0.07976218,0.99681392,0,0)" />
        </g>
      </g>
    </g>
    <g
       id="g1350"
       transform="matrix(0.25324794,0,0,0.25324794,-622.66771,-191.34293)"
       style="stroke-width:1.04475999">
      <g
         id="g1344"
         transform="translate(56.018265,-126.81559)"
         style="stroke-width:1.04475999">
        <path
           id="path1332"
           d="m 390.66666,631.5898 v 0 c 0,-9.2049 7.46207,-16.66699 16.66702,-16.66699 h 258.666 c 4.42035,0 8.65967,1.75598 11.78534,4.88165 3.12567,3.12567 4.88166,7.36499 4.88166,11.78534 v 66.66602 c 0,9.20495 -7.4621,16.66699 -16.667,16.66699 h -258.666 c -9.20495,0 -16.66702,-7.46204 -16.66702,-16.66699 z"
           inkscape:connector-curvature="0"
           style="fill:#c18aa7;fill-opacity:1;fill-rule:evenodd;stroke-width:1.04475999"
           sodipodi:nodetypes="ccssssssssc" />
        <path
           id="path1334"
           d="m 279.83203,668.58685 v 0 c 0,-48.32275 39.17331,-87.49609 87.49606,-87.49609 v 0 c 23.20538,0 45.46036,9.21832 61.86905,25.62701 16.40869,16.4087 25.62701,38.6637 25.62701,61.86908 v 0 c 0,48.32276 -39.17334,87.49603 -87.49606,87.49603 v 0 c -48.32275,0 -87.49606,-39.17328 -87.49606,-87.49603 z"
           inkscape:connector-curvature="0"
           style="fill:#c18aa7;fill-opacity:1;fill-rule:evenodd;stroke-width:1.04475999"
           sodipodi:nodetypes="ccccsccccc" />
        <g
           id="g1342"
           transform="matrix(0.24699633,0,0,0.24699633,305.33203,606.59077)"
           style="stroke-width:1.04475999">
          <clipPath
             id="clipPath1338">
            <path
               id="path1336"
               d="M 0,0 H 502 V 502 H 0 Z"
               inkscape:connector-curvature="0"
               style="clip-rule:evenodd" />
          </clipPath>
          <ellipse
             style="opacity:1;vector-effect:none;fill:none;fill-opacity:1;stroke:#374548;stroke-width:21.14930344;stroke-linecap:round;stroke-linejoin:round;stroke-miterlimit:4;stroke-dasharray:none;stroke-dashoffset:0;stroke-opacity:1"
             id="path1354"
             cx="250.68663"
             cy="253.92255"
             rx="250.68661"
             ry="253.92252" />
        </g>
        <text
           xml:space="preserve"
           style="font-style:normal;font-variant:normal;font-weight:normal;font-stretch:normal;font-size:40px;line-height:1.25;font-family:'CHRISTOPHER_FONT_2.0';-inkscape-font-specification:'CHRISTOPHER_FONT_2.0';letter-spacing:0px;word-spacing:0px;fill:#000000;fill-opacity:1;stroke:none;stroke-width:1.04476"
           x="346.76703"
           y="699.29449"
           id="text1013"><tspan
             sodipodi:role="line"
             id="tspan1011"
             x="346.76703"
             y="699.29449"
             style="font-style:normal;font-variant:normal;font-weight:bold;font-stretch:normal;font-size:96px;font-family:'Open Sans';-inkscape-font-specification:'Open Sans Bold';stroke-width:1.04476">?</tspan></text>
      </g>
      <text
         xml:space="preserve"
         style="font-style:normal;font-weight:normal;font-size:21.979px;line-height:1.25;font-family:sans-serif;letter-spacing:0px;word-spacing:0px;fill:#000000;fill-opacity:1;stroke:none;stroke-width:0.57407"
         x="508.64877"
         y="563.79675"
         id="text1348"><tspan
           sodipodi:role="line"
           x="508.64877"
           y="563.79675"
           id="tspan1346"
           style="font-style:normal;font-variant:normal;font-weight:bold;font-stretch:normal;font-size:74.6667px;font-family:'Open Sans';-inkscape-font-specification:'Open Sans Bold';stroke-width:0.57407">WHY?</tspan></text>
    </g>
    <g
       transform="matrix(0.25324794,0,0,0.25324794,-366.98464,-194.27616)"
       id="g1037"
       style="stroke-width:1.04475999">
      <g
         transform="translate(56.018265,-126.81559)"
         id="g1031"
         style="fill:#d9ead3;fill-opacity:1;stroke-width:1.04475999">
        <path
           sodipodi:nodetypes="ccssssssssc"
           style="fill:#b4be8c;fill-opacity:1;fill-rule:evenodd;stroke-width:1.04475999"
           inkscape:connector-curvature="0"
           d="m 50.66666,631.5898 v 0 c 0,-9.2049 7.46207,-16.66699 16.66702,-16.66699 h 258.666 c 4.42035,0 8.65967,1.75598 11.78534,4.88165 3.12567,3.12567 4.88166,7.36499 4.88166,11.78534 v 66.66602 c 0,9.20495 -7.4621,16.66699 -16.667,16.66699 h -258.666 c -9.20495,0 -16.66702,-7.46204 -16.66702,-16.66699 z"
           id="path1015" />
        <path
           sodipodi:nodetypes="ccccsccccc"
           style="fill:#b4be8c;fill-opacity:1;fill-rule:evenodd;stroke-width:1.04475999"
           inkscape:connector-curvature="0"
           d="m 279.83203,668.58685 v 0 c 0,-48.32275 39.17331,-87.49609 87.49606,-87.49609 v 0 c 23.20538,0 45.46036,9.21832 61.86905,25.62701 16.40869,16.4087 25.62701,38.6637 25.62701,61.86908 v 0 c 0,48.32276 -39.17334,87.49603 -87.49606,87.49603 v 0 c -48.32275,0 -87.49606,-39.17328 -87.49606,-87.49603 z"
           id="path1017" />
        <g
           transform="matrix(0.24699633,0,0,0.24699633,305.33203,606.59077)"
           id="g1025"
           style="fill:none;fill-opacity:1;stroke-width:1.04475999">
          <clipPath
             id="clipPath1021">
            <path
               style="clip-rule:evenodd"
               inkscape:connector-curvature="0"
               d="M 0,0 H 502 V 502 H 0 Z"
               id="path1019" />
          </clipPath>
          <ellipse
             ry="253.92252"
             rx="250.68661"
             cy="253.92255"
             cx="250.68663"
             id="ellipse1023"
             style="opacity:1;vector-effect:none;fill:none;fill-opacity:1;stroke:#374548;stroke-width:21.14930344;stroke-linecap:round;stroke-linejoin:round;stroke-miterlimit:4;stroke-dasharray:none;stroke-dashoffset:0;stroke-opacity:1" />
        </g>
        <text
           id="text1029"
           y="699.29449"
           x="346.76703"
           style="font-style:normal;font-variant:normal;font-weight:normal;font-stretch:normal;font-size:40px;line-height:1.25;font-family:'CHRISTOPHER_FONT_2.0';-inkscape-font-specification:'CHRISTOPHER_FONT_2.0';letter-spacing:0px;word-spacing:0px;fill:#000000;fill-opacity:1;stroke:none;stroke-width:1.04476"
           xml:space="preserve"><tspan
             style="font-style:normal;font-variant:normal;font-weight:bold;font-stretch:normal;font-size:96px;font-family:'Open Sans';-inkscape-font-specification:'Open Sans Bold';fill:#000000;fill-opacity:1;stroke-width:1.04476"
             y="699.29449"
             x="346.76703"
             id="tspan1027"
             sodipodi:role="line">?</tspan></text>
      </g>
      <text
         id="text1035"
         y="563.79675"
         x="118.64877"
         style="font-style:normal;font-weight:normal;font-size:21.979px;line-height:1.25;font-family:sans-serif;letter-spacing:0px;word-spacing:0px;fill:#000000;fill-opacity:1;stroke:none;stroke-width:0.57407"
         xml:space="preserve"><tspan
           style="font-style:normal;font-variant:normal;font-weight:bold;font-stretch:normal;font-size:74.6667px;font-family:'Open Sans';-inkscape-font-specification:'Open Sans Bold';stroke-width:0.57407"
           id="tspan1033"
           y="563.79675"
           x="118.64877"
           sodipodi:role="line">HOW?</tspan></text>
    </g>
    <text
       id="text1561"
       y="-14.955359"
       x="-455.1254"
       style="font-style:normal;font-variant:normal;font-weight:normal;font-stretch:normal;font-size:10.1299px;line-height:1.25;font-family:'Open Sans';-inkscape-font-specification:'Open Sans';letter-spacing:0px;word-spacing:0px;fill:#000000;fill-opacity:1;stroke:none;stroke-width:0.264583"
       xml:space="preserve"><tspan
         y="-14.955359"
         x="-455.1254"
         id="tspan1559"
         sodipodi:role="line"
         style="font-size:11.7169px;stroke-width:0.264583">Long term social support</tspan></text>
    <text
       xml:space="preserve"
       style="font-style:normal;font-variant:normal;font-weight:normal;font-stretch:normal;font-size:11.8303px;line-height:1.25;font-family:'Open Sans';-inkscape-font-specification:'Open Sans';letter-spacing:0px;word-spacing:0px;fill:#000000;fill-opacity:1;stroke:none;stroke-width:0.308996"
       x="-457.47546"
       y="-147.2785"
       id="text1553-3"><tspan
         sodipodi:role="line"
         id="tspan1551-6"
         x="-457.47546"
         y="-147.2785"
         style="font-weight:bold;stroke-width:0.308996">Social robots in the society?</tspan></text>
    <g
       id="g929"
       transform="matrix(0.9571576,0,0,0.9571576,-18.908712,-46.346797)"
       style="stroke-width:1.04475999">
      <g
         transform="matrix(0.06847921,0.25556787,0.25556787,-0.06847921,-529.07329,-214.77721)"
         id="g1326"
         style="stroke-width:1.04475999">
        <path
           sodipodi:nodetypes="cc"
           style="fill:none;fill-rule:evenodd;stroke:#000000;stroke-width:8.35807991;stroke-linecap:butt;stroke-linejoin:round"
           inkscape:connector-curvature="0"
           d="m 866.39525,713.44925 c 1.26269,43.43656 32.5442,61.47202 32.5442,61.47202"
           id="path170" />
        <path
           style="fill:#000000;fill-rule:evenodd;stroke:#000000;stroke-width:8.35807991;stroke-linecap:butt"
           inkscape:connector-curvature="0"
           d="m 891.59796,785.908 37.52734,9.18372 -22.84442,-31.15723 z"
           id="path172" />
      </g>
      <text
         id="text1553"
         y="-39.662434"
         x="-467.42093"
         style="font-style:normal;font-variant:normal;font-weight:normal;font-stretch:normal;font-size:12.2547px;line-height:1.25;font-family:'Open Sans';-inkscape-font-specification:'Open Sans';letter-spacing:0px;word-spacing:0px;fill:#000000;fill-opacity:1;stroke:none;stroke-width:0.32008"
         xml:space="preserve"><tspan
           style="stroke-width:0.32008"
           y="-39.662434"
           x="-467.42093"
           id="tspan1551"
           sodipodi:role="line">Large scale public engagement</tspan></text>
      <g
         id="g989"
         transform="matrix(-0.06847921,0.25556787,-0.25556787,-0.06847921,-231.21662,-216.91537)"
         style="stroke-width:1.04475999">
        <path
           id="path985"
           d="m 866.39525,713.44925 c 1.26269,43.43656 32.5442,61.47202 32.5442,61.47202"
           inkscape:connector-curvature="0"
           style="fill:none;fill-rule:evenodd;stroke:#000000;stroke-width:8.35807991;stroke-linecap:butt;stroke-linejoin:round"
           sodipodi:nodetypes="cc" />
        <path
           id="path987"
           d="m 891.59796,785.908 37.52734,9.18372 -22.84442,-31.15723 z"
           inkscape:connector-curvature="0"
           style="fill:#000000;fill-rule:evenodd;stroke:#000000;stroke-width:8.35807991;stroke-linecap:butt" />
      </g>
    </g>
    <g
       id="g995"
       transform="matrix(-0.24071008,-0.07869675,-0.07869675,0.24071008,-22.940493,-135.42381)"
       style="stroke-width:1.04475999">
      <path
         id="path991"
         d="m 823.73376,683.02877 c 0.74777,61.56778 45.23514,84.72427 74.99676,94.83015"
         inkscape:connector-curvature="0"
         style="fill:none;fill-rule:evenodd;stroke:#000000;stroke-width:8.35807991;stroke-linecap:butt;stroke-linejoin:round"
         sodipodi:nodetypes="cc" />
      <path
         id="path993"
         d="m 893.06241,790.21797 38.55154,2.53385 -27.90345,-26.72148 z"
         inkscape:connector-curvature="0"
         style="fill:#000000;fill-rule:evenodd;stroke:#000000;stroke-width:8.35807991;stroke-linecap:butt" />
    </g>
    <g
       transform="matrix(0.24071008,-0.07869675,0.07869675,0.24071008,-748.99086,-135.42381)"
       id="g942"
       style="stroke-width:1.04475999">
      <path
         sodipodi:nodetypes="cc"
         style="fill:none;fill-rule:evenodd;stroke:#000000;stroke-width:8.35807991;stroke-linecap:butt;stroke-linejoin:round"
         inkscape:connector-curvature="0"
         d="m 823.73376,683.02877 c 0.74777,61.56778 45.23514,84.72427 74.99676,94.83015"
         id="path938" />
      <path
         style="fill:#000000;fill-rule:evenodd;stroke:#000000;stroke-width:8.35807991;stroke-linecap:butt"
         inkscape:connector-curvature="0"
         d="m 893.06241,790.21797 38.55154,2.53385 -27.90345,-26.72148 z"
         id="path940" />
    </g>
    <rect
       style="opacity:1;vector-effect:none;fill:none;fill-opacity:1;stroke:#000000;stroke-width:1;stroke-linecap:round;stroke-linejoin:round;stroke-miterlimit:10;stroke-dasharray:none;stroke-dashoffset:0;stroke-opacity:1"
       id="rect905"
       width="313.42749"
       height="187.15303"
       x="-544.32831"
       y="-160.27579" />
    <text
       id="text926"
       y="15.321586"
       x="-508.04196"
       style="font-style:normal;font-variant:normal;font-weight:normal;font-stretch:normal;font-size:10.1299px;line-height:1.25;font-family:'Open Sans';-inkscape-font-specification:'Open Sans';letter-spacing:0px;word-spacing:0px;fill:#000000;fill-opacity:1;stroke:none;stroke-width:0.264583"
       xml:space="preserve"><tspan
         y="15.321586"
         x="-508.04196"
         id="tspan924"
         sodipodi:role="line"
         style="font-size:11.7169px;stroke-width:0.264583">robot-supported Human-Human Interactions</tspan></text>
  </g>
</svg>
